<mxfile host="app.diagrams.net" agent="Mozilla/5.0 (Windows NT 10.0; Win64; x64) AppleWebKit/537.36 (KHTML, like Gecko) Chrome/133.0.0.0 Safari/537.36 Edg/133.0.0.0" version="26.0.16">
  <diagram name="Page-1" id="Lg7OvXt3kj4zF9bIyfe0">
    <mxGraphModel dx="2037" dy="2721" grid="1" gridSize="10" guides="1" tooltips="1" connect="1" arrows="1" fold="1" page="1" pageScale="1" pageWidth="1169" pageHeight="827" math="0" shadow="0">
      <root>
        <mxCell id="0" />
        <mxCell id="1" parent="0" />
        <mxCell id="ci3b5TTThc14Hmr34_X9-3" style="edgeStyle=orthogonalEdgeStyle;rounded=0;orthogonalLoop=1;jettySize=auto;html=1;entryX=0;entryY=0.5;entryDx=0;entryDy=0;" parent="1" source="ci3b5TTThc14Hmr34_X9-1" target="ci3b5TTThc14Hmr34_X9-2" edge="1">
          <mxGeometry relative="1" as="geometry" />
        </mxCell>
        <mxCell id="ci3b5TTThc14Hmr34_X9-1" value="" style="ellipse;whiteSpace=wrap;html=1;fillColor=#dae8fc;strokeColor=#6c8ebf;" parent="1" vertex="1">
          <mxGeometry x="30" y="30" width="120" height="80" as="geometry" />
        </mxCell>
        <mxCell id="ci3b5TTThc14Hmr34_X9-8" style="edgeStyle=orthogonalEdgeStyle;rounded=0;orthogonalLoop=1;jettySize=auto;html=1;" parent="1" source="ci3b5TTThc14Hmr34_X9-2" edge="1">
          <mxGeometry relative="1" as="geometry">
            <mxPoint x="450" y="70" as="targetPoint" />
          </mxGeometry>
        </mxCell>
        <mxCell id="JAn3YFs3t6qd0V5HGAAI-20" value="" style="edgeStyle=orthogonalEdgeStyle;rounded=0;orthogonalLoop=1;jettySize=auto;html=1;" parent="1" source="ci3b5TTThc14Hmr34_X9-2" target="JAn3YFs3t6qd0V5HGAAI-19" edge="1">
          <mxGeometry relative="1" as="geometry" />
        </mxCell>
        <mxCell id="PF7sPU-5KxCt09fbh7PZ-24" value="" style="edgeStyle=orthogonalEdgeStyle;rounded=0;orthogonalLoop=1;jettySize=auto;html=1;" edge="1" parent="1" source="ci3b5TTThc14Hmr34_X9-2" target="PF7sPU-5KxCt09fbh7PZ-9">
          <mxGeometry relative="1" as="geometry" />
        </mxCell>
        <mxCell id="ci3b5TTThc14Hmr34_X9-2" value="index" style="rounded=1;whiteSpace=wrap;html=1;fontStyle=1" parent="1" vertex="1">
          <mxGeometry x="240" y="40" width="120" height="60" as="geometry" />
        </mxCell>
        <mxCell id="PF7sPU-5KxCt09fbh7PZ-7" style="edgeStyle=orthogonalEdgeStyle;rounded=0;orthogonalLoop=1;jettySize=auto;html=1;exitX=1;exitY=0.5;exitDx=0;exitDy=0;entryX=0;entryY=0.5;entryDx=0;entryDy=0;" edge="1" parent="1" source="ci3b5TTThc14Hmr34_X9-4" target="PF7sPU-5KxCt09fbh7PZ-6">
          <mxGeometry relative="1" as="geometry" />
        </mxCell>
        <mxCell id="ci3b5TTThc14Hmr34_X9-4" value="ações" style="swimlane;fontStyle=1;childLayout=stackLayout;horizontal=1;startSize=30;horizontalStack=0;resizeParent=1;resizeParentMax=0;resizeLast=0;collapsible=1;marginBottom=0;whiteSpace=wrap;html=1;" parent="1" vertex="1">
          <mxGeometry x="450" y="25" width="140" height="90" as="geometry">
            <mxRectangle x="450" y="25" width="70" height="30" as="alternateBounds" />
          </mxGeometry>
        </mxCell>
        <mxCell id="ci3b5TTThc14Hmr34_X9-9" value="editar" style="text;strokeColor=#82b366;fillColor=#d5e8d4;align=center;verticalAlign=middle;spacingLeft=4;spacingRight=4;overflow=hidden;points=[[0,0.5],[1,0.5]];portConstraint=eastwest;rotatable=0;whiteSpace=wrap;html=1;fontStyle=1" parent="ci3b5TTThc14Hmr34_X9-4" vertex="1">
          <mxGeometry y="30" width="140" height="30" as="geometry" />
        </mxCell>
        <mxCell id="PF7sPU-5KxCt09fbh7PZ-1" value="excluir" style="text;strokeColor=#b85450;fillColor=#f8cecc;align=center;verticalAlign=middle;spacingLeft=4;spacingRight=4;overflow=hidden;points=[[0,0.5],[1,0.5]];portConstraint=eastwest;rotatable=0;whiteSpace=wrap;html=1;fontStyle=1" vertex="1" parent="ci3b5TTThc14Hmr34_X9-4">
          <mxGeometry y="60" width="140" height="30" as="geometry" />
        </mxCell>
        <mxCell id="ci3b5TTThc14Hmr34_X9-19" value="" style="edgeStyle=orthogonalEdgeStyle;rounded=0;orthogonalLoop=1;jettySize=auto;html=1;entryX=0.5;entryY=1;entryDx=0;entryDy=0;" parent="1" source="ci3b5TTThc14Hmr34_X9-14" edge="1" target="PF7sPU-5KxCt09fbh7PZ-40">
          <mxGeometry relative="1" as="geometry">
            <mxPoint x="875" y="-80" as="targetPoint" />
            <Array as="points">
              <mxPoint x="875" y="-40" />
              <mxPoint x="1055" y="-40" />
            </Array>
          </mxGeometry>
        </mxCell>
        <mxCell id="ci3b5TTThc14Hmr34_X9-21" value="&lt;font size=&quot;1&quot; color=&quot;#33ff33&quot;&gt;&lt;b style=&quot;font-size: 14px;&quot;&gt;YES&lt;/b&gt;&lt;/font&gt;" style="edgeLabel;html=1;align=center;verticalAlign=middle;resizable=0;points=[];" parent="ci3b5TTThc14Hmr34_X9-19" vertex="1" connectable="0">
          <mxGeometry x="-0.1551" relative="1" as="geometry">
            <mxPoint as="offset" />
          </mxGeometry>
        </mxCell>
        <mxCell id="ci3b5TTThc14Hmr34_X9-23" style="edgeStyle=orthogonalEdgeStyle;rounded=0;orthogonalLoop=1;jettySize=auto;html=1;entryX=0;entryY=0.5;entryDx=0;entryDy=0;" parent="1" source="ci3b5TTThc14Hmr34_X9-14" target="ci3b5TTThc14Hmr34_X9-22" edge="1">
          <mxGeometry relative="1" as="geometry" />
        </mxCell>
        <mxCell id="ci3b5TTThc14Hmr34_X9-24" value="&lt;font style=&quot;font-size: 14px;&quot; color=&quot;#ff6666&quot;&gt;NO&lt;/font&gt;" style="edgeLabel;html=1;align=center;verticalAlign=middle;resizable=0;points=[];fontStyle=1" parent="ci3b5TTThc14Hmr34_X9-23" vertex="1" connectable="0">
          <mxGeometry x="-0.0048" y="1" relative="1" as="geometry">
            <mxPoint as="offset" />
          </mxGeometry>
        </mxCell>
        <mxCell id="ci3b5TTThc14Hmr34_X9-14" value="CONFIRMAR?" style="rhombus;whiteSpace=wrap;html=1;fontStyle=1;fillColor=#fff2cc;strokeColor=#d6b656;" parent="1" vertex="1">
          <mxGeometry x="820" y="20" width="110" height="100" as="geometry" />
        </mxCell>
        <mxCell id="ci3b5TTThc14Hmr34_X9-34" value="" style="edgeStyle=orthogonalEdgeStyle;rounded=0;orthogonalLoop=1;jettySize=auto;html=1;" parent="1" source="ci3b5TTThc14Hmr34_X9-20" target="ci3b5TTThc14Hmr34_X9-33" edge="1">
          <mxGeometry relative="1" as="geometry" />
        </mxCell>
        <mxCell id="ci3b5TTThc14Hmr34_X9-20" value="executar" style="rounded=1;whiteSpace=wrap;html=1;fontStyle=1" parent="1" vertex="1">
          <mxGeometry x="990" y="-582.31" width="120" height="60" as="geometry" />
        </mxCell>
        <mxCell id="ci3b5TTThc14Hmr34_X9-22" value="fechar modal" style="rounded=1;whiteSpace=wrap;html=1;fontStyle=1" parent="1" vertex="1">
          <mxGeometry x="1030" y="40" width="120" height="60" as="geometry" />
        </mxCell>
        <mxCell id="ci3b5TTThc14Hmr34_X9-31" style="edgeStyle=orthogonalEdgeStyle;rounded=0;orthogonalLoop=1;jettySize=auto;html=1;entryX=0;entryY=0.5;entryDx=0;entryDy=0;" parent="1" source="ci3b5TTThc14Hmr34_X9-29" target="ci3b5TTThc14Hmr34_X9-30" edge="1">
          <mxGeometry relative="1" as="geometry" />
        </mxCell>
        <mxCell id="ci3b5TTThc14Hmr34_X9-32" value="&lt;font size=&quot;1&quot; color=&quot;#00ff00&quot;&gt;&lt;b style=&quot;font-size: 14px;&quot;&gt;YES&lt;/b&gt;&lt;/font&gt;" style="edgeLabel;html=1;align=center;verticalAlign=middle;resizable=0;points=[];" parent="ci3b5TTThc14Hmr34_X9-31" vertex="1" connectable="0">
          <mxGeometry x="-0.0217" y="1" relative="1" as="geometry">
            <mxPoint as="offset" />
          </mxGeometry>
        </mxCell>
        <mxCell id="qxFZKJnwnPM8_OUHx0Zc-7" style="edgeStyle=orthogonalEdgeStyle;rounded=0;orthogonalLoop=1;jettySize=auto;html=1;entryX=0.5;entryY=0;entryDx=0;entryDy=0;" parent="1" source="ci3b5TTThc14Hmr34_X9-29" edge="1">
          <mxGeometry relative="1" as="geometry">
            <mxPoint x="870" y="360" as="targetPoint" />
          </mxGeometry>
        </mxCell>
        <mxCell id="qxFZKJnwnPM8_OUHx0Zc-9" value="&lt;font style=&quot;font-size: 15px;&quot; color=&quot;#ff6666&quot;&gt;NO&lt;/font&gt;" style="edgeLabel;html=1;align=center;verticalAlign=middle;resizable=0;points=[];fontStyle=1" parent="qxFZKJnwnPM8_OUHx0Zc-7" vertex="1" connectable="0">
          <mxGeometry x="-0.3279" y="-2" relative="1" as="geometry">
            <mxPoint as="offset" />
          </mxGeometry>
        </mxCell>
        <mxCell id="ci3b5TTThc14Hmr34_X9-29" value="CONFIRMAR?" style="rhombus;whiteSpace=wrap;html=1;fontStyle=1;fillColor=#fff2cc;strokeColor=#d6b656;" parent="1" vertex="1">
          <mxGeometry x="815" y="200" width="110" height="100" as="geometry" />
        </mxCell>
        <mxCell id="PF7sPU-5KxCt09fbh7PZ-39" value="" style="edgeStyle=orthogonalEdgeStyle;rounded=0;orthogonalLoop=1;jettySize=auto;html=1;" edge="1" parent="1" source="ci3b5TTThc14Hmr34_X9-30" target="PF7sPU-5KxCt09fbh7PZ-38">
          <mxGeometry relative="1" as="geometry" />
        </mxCell>
        <mxCell id="ci3b5TTThc14Hmr34_X9-30" value="executar" style="rounded=1;whiteSpace=wrap;html=1;fontStyle=1" parent="1" vertex="1">
          <mxGeometry x="1010" y="220" width="120" height="60" as="geometry" />
        </mxCell>
        <mxCell id="qxFZKJnwnPM8_OUHx0Zc-2" value="" style="edgeStyle=orthogonalEdgeStyle;rounded=0;orthogonalLoop=1;jettySize=auto;html=1;" parent="1" source="ci3b5TTThc14Hmr34_X9-33" target="qxFZKJnwnPM8_OUHx0Zc-1" edge="1">
          <mxGeometry relative="1" as="geometry" />
        </mxCell>
        <mxCell id="ci3b5TTThc14Hmr34_X9-33" value="mensagem de sucesso" style="rounded=1;whiteSpace=wrap;html=1;fontStyle=1" parent="1" vertex="1">
          <mxGeometry x="990" y="-712.31" width="120" height="60" as="geometry" />
        </mxCell>
        <mxCell id="qxFZKJnwnPM8_OUHx0Zc-1" value="fechar modal" style="whiteSpace=wrap;html=1;rounded=1;fontStyle=1;" parent="1" vertex="1">
          <mxGeometry x="990" y="-852.31" width="120" height="60" as="geometry" />
        </mxCell>
        <mxCell id="qxFZKJnwnPM8_OUHx0Zc-10" value="fechar janela de confirmação" style="rounded=1;whiteSpace=wrap;html=1;fontStyle=1" parent="1" vertex="1">
          <mxGeometry x="810" y="360" width="120" height="60" as="geometry" />
        </mxCell>
        <mxCell id="JAn3YFs3t6qd0V5HGAAI-19" value="search" style="rounded=1;whiteSpace=wrap;html=1;fontStyle=1" parent="1" vertex="1">
          <mxGeometry x="240" y="180" width="120" height="60" as="geometry" />
        </mxCell>
        <mxCell id="PF7sPU-5KxCt09fbh7PZ-8" style="edgeStyle=orthogonalEdgeStyle;rounded=0;orthogonalLoop=1;jettySize=auto;html=1;exitX=1;exitY=0.5;exitDx=0;exitDy=0;entryX=0;entryY=0.5;entryDx=0;entryDy=0;" edge="1" parent="1" source="PF7sPU-5KxCt09fbh7PZ-6" target="ci3b5TTThc14Hmr34_X9-14">
          <mxGeometry relative="1" as="geometry" />
        </mxCell>
        <mxCell id="PF7sPU-5KxCt09fbh7PZ-6" value="modal" style="rounded=1;whiteSpace=wrap;html=1;fontStyle=1" vertex="1" parent="1">
          <mxGeometry x="660" y="30" width="120" height="60" as="geometry" />
        </mxCell>
        <mxCell id="PF7sPU-5KxCt09fbh7PZ-23" value="" style="edgeStyle=orthogonalEdgeStyle;rounded=0;orthogonalLoop=1;jettySize=auto;html=1;" edge="1" parent="1" source="PF7sPU-5KxCt09fbh7PZ-9" target="PF7sPU-5KxCt09fbh7PZ-10">
          <mxGeometry relative="1" as="geometry" />
        </mxCell>
        <mxCell id="PF7sPU-5KxCt09fbh7PZ-9" value="cadastrar ativo (botao)" style="rounded=1;whiteSpace=wrap;html=1;fontStyle=1" vertex="1" parent="1">
          <mxGeometry x="240" y="-110" width="120" height="60" as="geometry" />
        </mxCell>
        <mxCell id="PF7sPU-5KxCt09fbh7PZ-10" value="modal" style="rounded=1;whiteSpace=wrap;html=1;fontStyle=1" vertex="1" parent="1">
          <mxGeometry x="240" y="-250" width="120" height="60" as="geometry" />
        </mxCell>
        <mxCell id="PF7sPU-5KxCt09fbh7PZ-26" style="edgeStyle=orthogonalEdgeStyle;rounded=0;orthogonalLoop=1;jettySize=auto;html=1;exitX=0.5;exitY=0;exitDx=0;exitDy=0;entryX=0;entryY=0.5;entryDx=0;entryDy=0;" edge="1" parent="1" source="PF7sPU-5KxCt09fbh7PZ-11" target="PF7sPU-5KxCt09fbh7PZ-25">
          <mxGeometry relative="1" as="geometry" />
        </mxCell>
        <mxCell id="PF7sPU-5KxCt09fbh7PZ-11" value="List" style="swimlane;fontStyle=0;childLayout=stackLayout;horizontal=1;startSize=30;horizontalStack=0;resizeParent=1;resizeParentMax=0;resizeLast=0;collapsible=1;marginBottom=0;whiteSpace=wrap;html=1;" vertex="1" parent="1">
          <mxGeometry x="240" y="-550" width="140" height="240" as="geometry" />
        </mxCell>
        <mxCell id="PF7sPU-5KxCt09fbh7PZ-12" value="descricao" style="text;strokeColor=none;fillColor=none;align=left;verticalAlign=middle;spacingLeft=4;spacingRight=4;overflow=hidden;points=[[0,0.5],[1,0.5]];portConstraint=eastwest;rotatable=0;whiteSpace=wrap;html=1;" vertex="1" parent="PF7sPU-5KxCt09fbh7PZ-11">
          <mxGeometry y="30" width="140" height="30" as="geometry" />
        </mxCell>
        <mxCell id="PF7sPU-5KxCt09fbh7PZ-13" value="marca" style="text;strokeColor=none;fillColor=none;align=left;verticalAlign=middle;spacingLeft=4;spacingRight=4;overflow=hidden;points=[[0,0.5],[1,0.5]];portConstraint=eastwest;rotatable=0;whiteSpace=wrap;html=1;" vertex="1" parent="PF7sPU-5KxCt09fbh7PZ-11">
          <mxGeometry y="60" width="140" height="30" as="geometry" />
        </mxCell>
        <mxCell id="PF7sPU-5KxCt09fbh7PZ-14" value="tipo" style="text;strokeColor=none;fillColor=none;align=left;verticalAlign=middle;spacingLeft=4;spacingRight=4;overflow=hidden;points=[[0,0.5],[1,0.5]];portConstraint=eastwest;rotatable=0;whiteSpace=wrap;html=1;" vertex="1" parent="PF7sPU-5KxCt09fbh7PZ-11">
          <mxGeometry y="90" width="140" height="30" as="geometry" />
        </mxCell>
        <mxCell id="PF7sPU-5KxCt09fbh7PZ-15" value="quantidade" style="text;strokeColor=none;fillColor=none;align=left;verticalAlign=middle;spacingLeft=4;spacingRight=4;overflow=hidden;points=[[0,0.5],[1,0.5]];portConstraint=eastwest;rotatable=0;whiteSpace=wrap;html=1;" vertex="1" parent="PF7sPU-5KxCt09fbh7PZ-11">
          <mxGeometry y="120" width="140" height="30" as="geometry" />
        </mxCell>
        <mxCell id="PF7sPU-5KxCt09fbh7PZ-16" value="quantidade_min" style="text;strokeColor=none;fillColor=none;align=left;verticalAlign=middle;spacingLeft=4;spacingRight=4;overflow=hidden;points=[[0,0.5],[1,0.5]];portConstraint=eastwest;rotatable=0;whiteSpace=wrap;html=1;" vertex="1" parent="PF7sPU-5KxCt09fbh7PZ-11">
          <mxGeometry y="150" width="140" height="30" as="geometry" />
        </mxCell>
        <mxCell id="PF7sPU-5KxCt09fbh7PZ-17" value="observacao (opcional)" style="text;strokeColor=none;fillColor=none;align=left;verticalAlign=middle;spacingLeft=4;spacingRight=4;overflow=hidden;points=[[0,0.5],[1,0.5]];portConstraint=eastwest;rotatable=0;whiteSpace=wrap;html=1;" vertex="1" parent="PF7sPU-5KxCt09fbh7PZ-11">
          <mxGeometry y="180" width="140" height="30" as="geometry" />
        </mxCell>
        <mxCell id="PF7sPU-5KxCt09fbh7PZ-18" value="imagem (opcional)" style="text;strokeColor=none;fillColor=none;align=left;verticalAlign=middle;spacingLeft=4;spacingRight=4;overflow=hidden;points=[[0,0.5],[1,0.5]];portConstraint=eastwest;rotatable=0;whiteSpace=wrap;html=1;" vertex="1" parent="PF7sPU-5KxCt09fbh7PZ-11">
          <mxGeometry y="210" width="140" height="30" as="geometry" />
        </mxCell>
        <mxCell id="PF7sPU-5KxCt09fbh7PZ-22" style="edgeStyle=orthogonalEdgeStyle;rounded=0;orthogonalLoop=1;jettySize=auto;html=1;exitX=0.5;exitY=0;exitDx=0;exitDy=0;entryX=0.429;entryY=1.033;entryDx=0;entryDy=0;entryPerimeter=0;" edge="1" parent="1" source="PF7sPU-5KxCt09fbh7PZ-10" target="PF7sPU-5KxCt09fbh7PZ-18">
          <mxGeometry relative="1" as="geometry">
            <Array as="points" />
          </mxGeometry>
        </mxCell>
        <mxCell id="PF7sPU-5KxCt09fbh7PZ-34" style="edgeStyle=orthogonalEdgeStyle;rounded=0;orthogonalLoop=1;jettySize=auto;html=1;exitX=0.5;exitY=1;exitDx=0;exitDy=0;entryX=0.5;entryY=0;entryDx=0;entryDy=0;" edge="1" parent="1" source="PF7sPU-5KxCt09fbh7PZ-25" target="PF7sPU-5KxCt09fbh7PZ-33">
          <mxGeometry relative="1" as="geometry" />
        </mxCell>
        <mxCell id="PF7sPU-5KxCt09fbh7PZ-60" style="edgeStyle=orthogonalEdgeStyle;rounded=0;orthogonalLoop=1;jettySize=auto;html=1;" edge="1" parent="1" source="PF7sPU-5KxCt09fbh7PZ-25" target="PF7sPU-5KxCt09fbh7PZ-59">
          <mxGeometry relative="1" as="geometry" />
        </mxCell>
        <mxCell id="PF7sPU-5KxCt09fbh7PZ-25" value="confirm?" style="rhombus;whiteSpace=wrap;html=1;fontStyle=1;fillColor=#fff2cc;strokeColor=#d6b656;" vertex="1" parent="1">
          <mxGeometry x="475" y="-620" width="110" height="100" as="geometry" />
        </mxCell>
        <mxCell id="PF7sPU-5KxCt09fbh7PZ-37" value="" style="edgeStyle=orthogonalEdgeStyle;rounded=0;orthogonalLoop=1;jettySize=auto;html=1;" edge="1" parent="1" source="PF7sPU-5KxCt09fbh7PZ-27" target="PF7sPU-5KxCt09fbh7PZ-36">
          <mxGeometry relative="1" as="geometry" />
        </mxCell>
        <mxCell id="PF7sPU-5KxCt09fbh7PZ-27" value="executar" style="rounded=1;whiteSpace=wrap;html=1;fontStyle=1;" vertex="1" parent="1">
          <mxGeometry x="470" y="-220" width="120" height="60" as="geometry" />
        </mxCell>
        <mxCell id="PF7sPU-5KxCt09fbh7PZ-31" value="" style="edgeStyle=orthogonalEdgeStyle;rounded=0;orthogonalLoop=1;jettySize=auto;html=1;" edge="1" parent="1" source="PF7sPU-5KxCt09fbh7PZ-30" target="ci3b5TTThc14Hmr34_X9-29">
          <mxGeometry relative="1" as="geometry" />
        </mxCell>
        <mxCell id="PF7sPU-5KxCt09fbh7PZ-30" value="JANELA CONFIRMAÇÃO" style="rounded=1;whiteSpace=wrap;html=1;fontStyle=1" vertex="1" parent="1">
          <mxGeometry x="640" y="210" width="120" height="60" as="geometry" />
        </mxCell>
        <mxCell id="PF7sPU-5KxCt09fbh7PZ-32" style="edgeStyle=orthogonalEdgeStyle;rounded=0;orthogonalLoop=1;jettySize=auto;html=1;exitX=1;exitY=0.5;exitDx=0;exitDy=0;entryX=0;entryY=0.5;entryDx=0;entryDy=0;" edge="1" parent="1" source="PF7sPU-5KxCt09fbh7PZ-1" target="PF7sPU-5KxCt09fbh7PZ-30">
          <mxGeometry relative="1" as="geometry" />
        </mxCell>
        <mxCell id="PF7sPU-5KxCt09fbh7PZ-56" value="" style="edgeStyle=orthogonalEdgeStyle;rounded=0;orthogonalLoop=1;jettySize=auto;html=1;" edge="1" parent="1" source="PF7sPU-5KxCt09fbh7PZ-33" target="PF7sPU-5KxCt09fbh7PZ-50">
          <mxGeometry relative="1" as="geometry" />
        </mxCell>
        <mxCell id="PF7sPU-5KxCt09fbh7PZ-33" value="VALIDAR DADOS" style="rounded=1;whiteSpace=wrap;html=1;fontStyle=1;" vertex="1" parent="1">
          <mxGeometry x="470" y="-443" width="120" height="60" as="geometry" />
        </mxCell>
        <mxCell id="PF7sPU-5KxCt09fbh7PZ-36" value="fechar modal" style="whiteSpace=wrap;html=1;rounded=1;fontStyle=1;" vertex="1" parent="1">
          <mxGeometry x="470" y="-120" width="120" height="60" as="geometry" />
        </mxCell>
        <mxCell id="PF7sPU-5KxCt09fbh7PZ-38" value="FECHAR JANELA (ATUALIZA SEM RECARREGAR)" style="whiteSpace=wrap;html=1;rounded=1;fontStyle=1;" vertex="1" parent="1">
          <mxGeometry x="1195" y="220" width="120" height="60" as="geometry" />
        </mxCell>
        <mxCell id="PF7sPU-5KxCt09fbh7PZ-43" value="" style="edgeStyle=orthogonalEdgeStyle;rounded=0;orthogonalLoop=1;jettySize=auto;html=1;" edge="1" parent="1" source="PF7sPU-5KxCt09fbh7PZ-40" target="PF7sPU-5KxCt09fbh7PZ-42">
          <mxGeometry relative="1" as="geometry" />
        </mxCell>
        <mxCell id="PF7sPU-5KxCt09fbh7PZ-40" value="validar dados" style="rounded=1;whiteSpace=wrap;html=1;fontStyle=1" vertex="1" parent="1">
          <mxGeometry x="995" y="-212.31" width="120" height="60" as="geometry" />
        </mxCell>
        <mxCell id="PF7sPU-5KxCt09fbh7PZ-46" value="" style="edgeStyle=orthogonalEdgeStyle;rounded=0;orthogonalLoop=1;jettySize=auto;html=1;" edge="1" parent="1" source="PF7sPU-5KxCt09fbh7PZ-42" target="PF7sPU-5KxCt09fbh7PZ-45">
          <mxGeometry relative="1" as="geometry" />
        </mxCell>
        <mxCell id="PF7sPU-5KxCt09fbh7PZ-48" value="&lt;font style=&quot;color: rgb(234, 107, 102); font-size: 16px;&quot;&gt;&lt;b style=&quot;&quot;&gt;NO&lt;/b&gt;&lt;/font&gt;" style="edgeLabel;html=1;align=center;verticalAlign=middle;resizable=0;points=[];" vertex="1" connectable="0" parent="PF7sPU-5KxCt09fbh7PZ-46">
          <mxGeometry x="-0.2881" relative="1" as="geometry">
            <mxPoint as="offset" />
          </mxGeometry>
        </mxCell>
        <mxCell id="PF7sPU-5KxCt09fbh7PZ-42" value="validar?" style="rhombus;whiteSpace=wrap;html=1;rounded=1;fontStyle=1;fillColor=#fff2cc;strokeColor=#d6b656;" vertex="1" parent="1">
          <mxGeometry x="1015" y="-362.31" width="80" height="80" as="geometry" />
        </mxCell>
        <mxCell id="PF7sPU-5KxCt09fbh7PZ-44" style="edgeStyle=orthogonalEdgeStyle;rounded=0;orthogonalLoop=1;jettySize=auto;html=1;entryX=0.58;entryY=1.009;entryDx=0;entryDy=0;entryPerimeter=0;" edge="1" parent="1" source="PF7sPU-5KxCt09fbh7PZ-42" target="ci3b5TTThc14Hmr34_X9-20">
          <mxGeometry relative="1" as="geometry" />
        </mxCell>
        <mxCell id="PF7sPU-5KxCt09fbh7PZ-47" style="edgeStyle=orthogonalEdgeStyle;rounded=0;orthogonalLoop=1;jettySize=auto;html=1;entryX=0.5;entryY=0;entryDx=0;entryDy=0;" edge="1" parent="1" source="PF7sPU-5KxCt09fbh7PZ-45" target="PF7sPU-5KxCt09fbh7PZ-6">
          <mxGeometry relative="1" as="geometry">
            <Array as="points">
              <mxPoint x="780" y="-322" />
              <mxPoint x="780" y="-10" />
              <mxPoint x="720" y="-10" />
            </Array>
          </mxGeometry>
        </mxCell>
        <mxCell id="PF7sPU-5KxCt09fbh7PZ-45" value="mostrar feedback" style="whiteSpace=wrap;html=1;rounded=1;fontStyle=1;" vertex="1" parent="1">
          <mxGeometry x="840" y="-352.31" width="120" height="60" as="geometry" />
        </mxCell>
        <mxCell id="PF7sPU-5KxCt09fbh7PZ-49" value="&lt;b style=&quot;forced-color-adjust: none; font-family: Helvetica; font-size: 16px; font-style: normal; font-variant-ligatures: normal; font-variant-caps: normal; letter-spacing: normal; orphans: 2; text-align: center; text-indent: 0px; text-transform: none; widows: 2; word-spacing: 0px; -webkit-text-stroke-width: 0px; white-space: nowrap; background-color: rgb(255, 255, 255); text-decoration-thickness: initial; text-decoration-style: initial; text-decoration-color: initial;&quot;&gt;&lt;font style=&quot;color: rgb(51, 255, 51);&quot;&gt;YES&lt;/font&gt;&lt;/b&gt;" style="text;whiteSpace=wrap;html=1;" vertex="1" parent="1">
          <mxGeometry x="1040" y="-435.31" width="70" height="40" as="geometry" />
        </mxCell>
        <mxCell id="PF7sPU-5KxCt09fbh7PZ-54" value="" style="edgeStyle=orthogonalEdgeStyle;rounded=0;orthogonalLoop=1;jettySize=auto;html=1;" edge="1" parent="1" source="PF7sPU-5KxCt09fbh7PZ-50" target="PF7sPU-5KxCt09fbh7PZ-53">
          <mxGeometry relative="1" as="geometry" />
        </mxCell>
        <mxCell id="PF7sPU-5KxCt09fbh7PZ-57" value="" style="edgeStyle=orthogonalEdgeStyle;rounded=0;orthogonalLoop=1;jettySize=auto;html=1;" edge="1" parent="1" source="PF7sPU-5KxCt09fbh7PZ-50" target="PF7sPU-5KxCt09fbh7PZ-27">
          <mxGeometry relative="1" as="geometry">
            <Array as="points">
              <mxPoint x="530" y="-230" />
              <mxPoint x="530" y="-230" />
            </Array>
          </mxGeometry>
        </mxCell>
        <mxCell id="PF7sPU-5KxCt09fbh7PZ-50" value="validar?" style="rhombus;whiteSpace=wrap;html=1;rounded=1;fontStyle=1;fillColor=#fff2cc;strokeColor=#d6b656;" vertex="1" parent="1">
          <mxGeometry x="490" y="-350" width="80" height="80" as="geometry" />
        </mxCell>
        <mxCell id="PF7sPU-5KxCt09fbh7PZ-51" value="&lt;font style=&quot;color: rgb(234, 107, 102); font-size: 16px;&quot;&gt;&lt;b style=&quot;&quot;&gt;NO&lt;/b&gt;&lt;/font&gt;" style="edgeLabel;html=1;align=center;verticalAlign=middle;resizable=0;points=[];" vertex="1" connectable="0" parent="1">
          <mxGeometry x="995" y="-309.99999999999994" as="geometry">
            <mxPoint x="-403" y="2" as="offset" />
          </mxGeometry>
        </mxCell>
        <mxCell id="PF7sPU-5KxCt09fbh7PZ-52" value="&lt;font size=&quot;1&quot; color=&quot;#33ff33&quot;&gt;&lt;b style=&quot;font-size: 14px;&quot;&gt;YES&lt;/b&gt;&lt;/font&gt;" style="edgeLabel;html=1;align=center;verticalAlign=middle;resizable=0;points=[];" vertex="1" connectable="0" parent="1">
          <mxGeometry x="973.4210526315787" y="-30" as="geometry">
            <mxPoint x="-443" y="-221" as="offset" />
          </mxGeometry>
        </mxCell>
        <mxCell id="PF7sPU-5KxCt09fbh7PZ-55" style="edgeStyle=orthogonalEdgeStyle;rounded=0;orthogonalLoop=1;jettySize=auto;html=1;entryX=0.25;entryY=0;entryDx=0;entryDy=0;" edge="1" parent="1" source="PF7sPU-5KxCt09fbh7PZ-53" target="PF7sPU-5KxCt09fbh7PZ-11">
          <mxGeometry relative="1" as="geometry">
            <mxPoint x="690.0000000000002" y="-440" as="targetPoint" />
            <Array as="points">
              <mxPoint x="690" y="-670" />
              <mxPoint x="275" y="-670" />
            </Array>
          </mxGeometry>
        </mxCell>
        <mxCell id="PF7sPU-5KxCt09fbh7PZ-53" value="mostrar feedback" style="whiteSpace=wrap;html=1;rounded=1;fontStyle=1;" vertex="1" parent="1">
          <mxGeometry x="630" y="-340" width="120" height="60" as="geometry" />
        </mxCell>
        <mxCell id="PF7sPU-5KxCt09fbh7PZ-59" value="fechar modal" style="rounded=1;whiteSpace=wrap;html=1;fontStyle=1" vertex="1" parent="1">
          <mxGeometry x="470" y="-772.31" width="120" height="60" as="geometry" />
        </mxCell>
        <mxCell id="PF7sPU-5KxCt09fbh7PZ-61" value="&lt;font style=&quot;color: rgb(234, 107, 102); font-size: 16px;&quot;&gt;&lt;b style=&quot;&quot;&gt;NO&lt;/b&gt;&lt;/font&gt;" style="edgeLabel;html=1;align=center;verticalAlign=middle;resizable=0;points=[];" vertex="1" connectable="0" parent="1">
          <mxGeometry x="930" y="-652.31" as="geometry">
            <mxPoint x="-403" y="2" as="offset" />
          </mxGeometry>
        </mxCell>
        <mxCell id="PF7sPU-5KxCt09fbh7PZ-62" value="&lt;font size=&quot;1&quot; color=&quot;#33ff33&quot;&gt;&lt;b style=&quot;font-size: 14px;&quot;&gt;YES&lt;/b&gt;&lt;/font&gt;" style="edgeLabel;html=1;align=center;verticalAlign=middle;resizable=0;points=[];" vertex="1" connectable="0" parent="1">
          <mxGeometry x="973.4210526315787" y="-270" as="geometry">
            <mxPoint x="-443" y="-221" as="offset" />
          </mxGeometry>
        </mxCell>
      </root>
    </mxGraphModel>
  </diagram>
</mxfile>
